<?xml version="1.0" standalone="no"?>
<!DOCTYPE svg PUBLIC "-//W3C//DTD SVG 20010904//EN"
 "http://www.w3.org/TR/2001/REC-SVG-20010904/DTD/svg10.dtd">
<svg version="1.0" xmlns="http://www.w3.org/2000/svg"
 width="900.000000pt" height="900.000000pt" viewBox="0 0 900.000000 900.000000"
 preserveAspectRatio="xMidYMid meet">
<metadata>
Created by potrace 1.14, written by Peter Selinger 2001-2017
</metadata>
<g transform="translate(0.000000,900.000000) scale(0.100000,-0.100000)"
fill="#000000" stroke="none">
<path d="M4342 8917 c-30 -32 -53 -91 -66 -172 l-12 -70 -100 -8 c-203 -15
-391 -58 -494 -112 -25 -14 -74 -34 -110 -46 -36 -12 -86 -37 -112 -56 -26
-18 -50 -33 -52 -33 -3 0 -9 15 -15 33 -15 44 -73 99 -139 132 -62 31 -92 30
-109 -5 -18 -35 -16 -150 3 -207 16 -47 16 -48 -7 -63 -73 -48 -397 -341 -459
-415 -25 -29 -48 -54 -52 -54 -4 -1 -22 12 -40 27 -18 15 -46 33 -61 40 -34
15 -133 16 -142 2 -4 -6 7 -10 24 -10 17 0 40 -9 50 -19 17 -17 21 -17 34 -4
13 13 18 13 43 0 16 -9 47 -34 69 -56 43 -45 56 -51 48 -22 -10 38 128 161
181 161 26 0 19 -16 -43 -97 -33 -42 -58 -80 -55 -85 3 -4 21 -8 40 -8 27 0
34 -4 34 -19 0 -31 -51 -113 -106 -169 -42 -44 -57 -53 -80 -50 -23 2 -30 9
-34 33 -6 35 -11 29 -39 -46 -22 -57 -70 -119 -94 -119 -29 0 -40 28 -34 90 6
75 33 124 70 128 15 2 27 6 26 10 0 9 -109 95 -109 87 0 -4 10 -20 21 -37 17
-23 19 -34 11 -51 -62 -131 -79 -177 -69 -177 7 0 23 -20 37 -45 l24 -44 -22
-88 c-25 -103 -38 -226 -28 -278 6 -32 10 -36 20 -24 23 24 46 109 71 262 20
121 30 156 53 190 15 23 32 51 38 61 7 13 24 20 55 23 56 5 79 20 134 91 46
58 69 109 79 172 5 27 13 38 36 49 76 33 283 243 306 309 16 47 39 53 47 13 8
-40 63 -65 124 -57 42 6 133 57 167 94 20 23 27 104 13 155 l-7 27 80 2 c106
2 128 4 175 12 105 19 310 92 368 131 31 21 38 23 43 11 3 -8 3 -20 -1 -25 -3
-6 13 -31 36 -56 44 -48 214 -139 247 -133 29 5 94 114 99 166 7 76 8 76 55
44 41 -27 217 -98 303 -122 22 -6 83 -19 135 -28 91 -17 95 -19 100 -46 5 -28
5 -28 23 -8 10 11 29 23 43 26 39 10 28 24 -33 37 -91 21 -200 113 -178 149 8
14 99 5 154 -15 23 -8 41 -10 41 -5 0 13 -277 90 -323 90 -10 0 -28 6 -40 14
-37 24 -168 56 -230 56 -68 0 -75 10 -57 75 20 71 -7 124 -89 177 -54 34 -90
36 -119 5z m76 -21 c-4 -21 -3 -23 13 -13 15 9 24 7 46 -9 15 -12 34 -32 40
-45 17 -32 16 -102 -1 -144 -8 -18 -12 -36 -8 -39 3 -3 44 -6 92 -6 130 0 236
-38 201 -73 -19 -19 -207 -22 -261 -3 -24 8 -46 14 -48 12 -2 -2 8 -16 22 -31
35 -38 34 -84 -4 -150 -44 -77 -48 -79 -111 -55 -65 26 -172 84 -186 102 -29
35 -25 57 19 104 l42 46 -49 -8 c-98 -16 -235 -6 -235 17 0 21 72 39 187 45
l119 7 0 61 c1 97 34 167 59 126 9 -15 42 -12 49 5 4 10 -1 14 -17 12 -18 -2
-23 4 -25 31 -3 30 -1 32 29 32 28 0 31 -3 27 -24z m-1228 -371 c0 -58 -15
-79 -36 -51 -21 30 2 126 27 110 5 -3 9 -29 9 -59z m84 10 c42 -29 85 -75 86
-91 0 -7 8 -21 18 -33 l17 -22 62 44 c62 43 176 87 191 73 17 -18 -102 -96
-223 -148 l-30 -12 40 -4 c52 -5 63 -15 71 -68 8 -57 -5 -77 -86 -132 -64 -43
-97 -50 -144 -32 -38 14 -49 43 -32 85 13 31 7 50 -9 25 -3 -5 -62 -39 -130
-75 -118 -63 -154 -74 -162 -50 -4 13 73 96 155 165 57 48 64 52 87 42 32 -15
31 -7 -1 36 -17 21 -27 48 -28 70 -1 32 2 36 24 37 22 0 25 5 28 45 5 80 10
83 66 45z m-834 -1310 c-15 -86 -29 -145 -35 -145 -9 0 7 138 23 195 21 77 29
45 12 -50z"/>
<path d="M5395 8632 c-45 -22 -87 -63 -114 -113 -15 -26 -25 -34 -45 -32 l-26
2 29 -25 c37 -31 41 -30 41 5 0 22 14 45 55 89 47 52 61 61 101 67 36 5 50 3
62 -9 14 -14 14 -17 -3 -36 -22 -24 -29 -25 -49 -4 -19 19 -21 5 -3 -20 11
-16 17 -16 34 -6 34 22 53 7 47 -37 -10 -69 -25 -102 -56 -124 -29 -21 -30
-23 -12 -36 24 -17 35 -17 27 3 -3 8 3 25 14 37 37 40 47 71 46 141 -1 53 -5
73 -20 88 -28 28 -81 32 -128 10z"/>
<path d="M5590 8276 c0 -2 7 -7 16 -10 8 -3 12 -2 9 4 -6 10 -25 14 -25 6z"/>
<path d="M5415 8253 c10 -23 7 -65 -4 -76 -5 -5 -26 -15 -47 -22 l-39 -14 31
-1 c40 0 84 34 84 65 0 36 14 37 56 6 40 -29 169 -182 220 -261 16 -25 31 -47
34 -50 3 -3 16 -25 29 -50 14 -25 27 -47 30 -50 10 -8 107 -212 116 -240 4
-14 20 -54 35 -90 16 -36 38 -91 51 -122 12 -32 24 -56 26 -54 6 6 -25 107
-53 176 -31 77 -31 83 6 75 16 -4 56 1 90 9 34 9 67 13 72 9 8 -4 9 2 5 18 -4
13 -7 28 -7 33 0 5 -12 -1 -26 -15 -20 -19 -36 -24 -82 -24 -54 0 -58 2 -73
31 -13 28 -17 30 -26 15 -13 -20 -6 -30 -77 114 -33 66 -75 144 -94 173 -31
49 -32 52 -10 40 13 -7 63 -42 111 -78 l87 -65 -5 -45 -6 -45 21 34 c20 31 24
33 61 28 49 -6 50 3 3 28 -44 24 -132 119 -151 162 -17 42 -17 93 0 93 20 0
180 -168 211 -222 16 -27 29 -48 31 -48 1 0 3 12 3 27 0 18 11 38 36 60 30 28
43 33 85 33 28 0 53 -5 57 -11 3 -6 -9 -26 -27 -45 -28 -29 -31 -36 -19 -45 8
-5 34 -7 58 -4 37 6 42 4 42 -13 0 -23 -66 -86 -115 -109 -19 -9 -35 -20 -35
-25 0 -4 14 -29 30 -55 17 -26 30 -54 30 -62 0 -8 5 -30 12 -48 9 -25 9 -36 0
-45 -9 -9 -21 -4 -52 21 -22 17 -40 28 -40 22 0 -13 55 -58 80 -66 33 -10 52
-59 41 -103 -5 -20 -13 -85 -16 -145 -8 -114 -18 -139 -33 -84 -9 34 -105 185
-126 199 -17 12 -43 -10 -59 -51 -41 -101 -69 -238 -75 -366 -4 -71 -5 -150
-2 -175 4 -40 8 -45 33 -48 34 -4 34 -14 1 -58 -48 -63 -44 -102 25 -243 79
-161 79 -143 7 -436 -54 -220 -79 -298 -181 -583 -8 -24 -27 -65 -40 -92 -27
-53 -32 -75 -14 -64 20 12 96 196 149 359 24 74 44 104 60 89 22 -22 32 -129
21 -230 -15 -145 -46 -200 -187 -340 -113 -112 -238 -214 -262 -214 -9 0 -6
12 8 40 23 44 80 196 80 211 0 5 -4 9 -8 9 -4 0 -18 -33 -31 -72 -67 -210
-295 -501 -489 -625 -66 -43 -245 -135 -317 -164 -27 -12 -88 -38 -135 -59
-180 -81 -212 -90 -319 -90 -79 0 -118 6 -197 29 -135 39 -506 189 -619 251
-33 18 -85 45 -115 61 -72 38 -182 121 -247 187 -50 51 -90 120 -195 335 -21
42 -41 77 -44 77 -10 0 -69 -43 -77 -57 -4 -7 -12 -13 -18 -13 -17 0 -133 250
-176 381 -87 263 -116 418 -139 744 -20 283 -15 499 17 745 20 160 78 459 98
513 6 15 7 27 2 27 -16 0 -70 -220 -116 -472 -25 -138 -45 -361 -45 -503 0
-248 45 -652 96 -851 13 -54 31 -124 39 -154 7 -30 16 -95 19 -145 9 -123 26
-246 37 -267 5 -9 8 -21 7 -25 -4 -16 15 -76 44 -141 73 -161 90 -192 142
-260 31 -40 52 -72 47 -72 -19 0 -174 126 -272 221 -228 224 -343 385 -437
614 -126 305 -154 463 -155 855 -1 248 1 275 26 410 15 80 34 181 42 225 8 44
33 147 54 230 22 82 38 151 36 153 -7 8 -32 -62 -59 -168 -42 -164 -91 -249
-144 -250 -12 0 -48 -8 -80 -19 -31 -10 -79 -21 -106 -25 -27 -3 -83 -22 -123
-41 -41 -19 -87 -34 -102 -33 -18 1 -42 -8 -62 -23 -33 -24 -123 -49 -241 -65
-27 -3 -48 -10 -48 -15 0 -5 -5 -9 -10 -9 -6 0 -24 -13 -40 -30 -16 -16 -32
-30 -35 -30 -15 0 -74 -78 -75 -98 0 -13 -7 -30 -15 -38 -21 -22 -19 -44 5
-44 12 0 20 7 20 18 1 21 44 54 68 51 50 -5 62 1 62 29 0 21 5 27 23 29 59 6
130 4 207 -3 51 -6 102 -5 127 0 41 9 43 11 49 55 3 25 13 53 21 62 12 15 18
15 56 2 23 -8 45 -20 49 -26 4 -7 8 -52 9 -102 1 -105 7 -130 32 -130 29 0 22
-19 -14 -36 l-33 -16 34 -18 c19 -10 47 -30 63 -45 27 -27 27 -27 7 -45 -33
-30 -190 -10 -190 24 0 11 58 71 68 71 10 0 22 23 22 41 0 14 -43 11 -66 -5
-34 -24 -78 -24 -88 0 -5 12 -18 26 -27 33 -26 16 -182 35 -267 34 -73 -2 -91
-10 -105 -45 -6 -16 -30 -23 -64 -19 -6 1 -21 -16 -34 -36 -27 -45 -37 -53
-66 -53 -12 0 -28 -6 -35 -13 -47 -44 -99 -77 -124 -77 -39 1 -73 29 -76 62
-3 31 -55 65 -73 47 -5 -5 -18 -9 -30 -9 -12 0 -30 -6 -41 -14 -10 -8 -29 -12
-41 -9 -13 3 -23 1 -23 -4 0 -5 -14 -8 -30 -5 -23 3 -37 -2 -57 -22 -14 -14
-31 -25 -37 -25 -6 1 -18 0 -26 -4 -8 -3 -37 -8 -65 -10 -35 -4 -54 -11 -67
-28 -15 -18 -33 -23 -101 -30 -45 -4 -114 -8 -154 -8 -39 -1 -78 -4 -87 -7
-14 -5 -16 -49 -16 -390 l0 -384 43 -1 c74 -3 90 -6 103 -24 17 -23 10 -53
-22 -81 -17 -17 -24 -30 -19 -42 3 -9 9 -29 12 -44 6 -33 -18 -48 -76 -48
l-41 0 0 -779 0 -779 123 -73 c67 -40 169 -105 226 -144 57 -38 168 -101 245
-140 162 -81 159 -75 131 -202 -11 -50 -13 -79 -7 -85 12 -12 17 2 32 82 5 30
24 90 42 132 l31 77 -27 179 c-28 179 -28 180 -9 238 22 73 88 147 125 142 21
-3 23 -9 30 -83 10 -125 100 -412 214 -683 8 -18 21 -74 30 -125 14 -77 15
-152 11 -464 -2 -205 -1 -371 3 -368 4 2 10 123 14 267 7 264 15 328 42 328
27 0 97 -135 189 -362 l27 -66 -17 -189 c-19 -220 -29 -288 -56 -401 -30 -124
-92 -324 -137 -443 -54 -140 -137 -350 -167 -419 -30 -70 -102 -278 -155 -446
-42 -135 -61 -174 -85 -174 -30 0 -173 51 -178 63 -3 7 0 39 5 71 9 49 6 84
-13 200 -45 273 -30 385 72 543 92 142 92 144 84 308 -7 128 -5 147 15 215 12
41 32 92 44 112 25 43 100 124 148 162 18 14 29 28 26 31 -4 4 -26 -11 -49
-34 -24 -23 -50 -41 -59 -41 -15 0 -190 255 -190 278 0 19 -42 39 -94 47 -77
11 -239 71 -392 146 -131 64 -146 69 -208 69 -37 0 -66 -4 -66 -10 0 -6 26
-10 59 -10 46 0 71 -7 117 -31 116 -61 190 -96 226 -109 43 -16 51 -30 38 -64
-23 -62 -33 -229 -20 -380 l12 -151 -26 -45 c-34 -62 -59 -203 -51 -288 8 -74
38 -199 61 -249 8 -17 14 -55 14 -85 1 -99 28 -293 49 -353 12 -33 30 -82 39
-110 9 -27 24 -63 33 -80 10 -16 29 -52 42 -80 58 -119 112 -139 371 -140
l178 0 29 140 c35 173 69 283 121 400 72 160 180 409 188 435 5 14 36 102 69
195 64 175 79 249 103 480 6 61 14 114 19 119 4 5 16 -7 25 -27 16 -33 16 -39
1 -89 -9 -29 -24 -98 -32 -153 -39 -251 -101 -446 -209 -660 -42 -83 -80 -163
-85 -180 -5 -16 -21 -68 -36 -115 -14 -47 -39 -130 -55 -185 -16 -55 -47 -156
-69 -225 -23 -69 -41 -128 -41 -132 0 -5 320 -8 710 -8 560 0 711 3 714 13 56
179 71 224 77 232 3 6 14 43 23 82 9 40 24 88 33 107 19 40 46 48 133 37 l55
-6 7 -55 c4 -30 14 -118 23 -195 8 -77 18 -157 21 -178 l6 -37 381 2 380 3 29
90 c16 50 35 140 42 200 l14 110 1 -76 c1 -72 -14 -183 -27 -204 -4 -5 -12
-28 -18 -50 -6 -22 -15 -48 -19 -58 -7 -16 45 -17 1041 -15 l1049 3 8 45 c8
48 9 63 5 95 -3 17 4 20 37 23 22 1 47 -3 55 -8 13 -9 12 -13 -7 -27 -23 -16
-31 -47 -14 -57 5 -3 14 1 21 9 10 12 16 13 26 4 8 -6 14 -17 14 -23 0 -7 6
-24 13 -39 l12 -27 668 0 668 0 -14 28 c-21 40 -62 182 -92 312 -49 217 -77
325 -100 385 -13 33 -41 107 -63 165 -21 58 -50 128 -64 155 -27 53 -85 229
-117 355 -39 155 -52 348 -24 357 12 4 13 -2 33 -187 24 -219 77 -399 192
-644 43 -93 83 -186 88 -205 22 -86 60 -229 70 -261 6 -19 24 -96 40 -170 17
-74 43 -169 59 -210 l28 -75 203 -3 c161 -2 215 1 259 13 121 34 155 54 228
128 95 99 132 186 145 342 5 60 6 142 3 180 -13 162 -9 237 15 293 47 108 27
305 -42 419 -22 36 -21 20 -12 310 l7 222 71 29 c177 73 213 75 411 28 123
-30 234 -42 289 -32 67 13 37 26 -57 26 -70 0 -122 7 -217 31 -147 37 -248 43
-300 17 -19 -10 -66 -28 -105 -42 -38 -13 -96 -33 -127 -45 -32 -12 -66 -21
-76 -21 -36 0 -258 -47 -282 -60 -13 -7 -57 -37 -97 -66 -39 -30 -76 -54 -80
-54 -4 0 -19 21 -33 46 -13 26 -29 52 -35 58 -6 6 -34 39 -63 72 l-53 62 17
58 c30 104 21 263 -22 392 -25 75 -19 114 32 200 56 96 56 96 117 211 28 52
61 111 74 130 51 77 183 218 293 314 128 112 182 167 242 245 49 63 63 57 62
-26 -1 -80 -28 -153 -83 -225 -26 -34 -63 -89 -81 -122 -18 -33 -43 -76 -56
-96 -25 -40 -59 -147 -50 -156 3 -3 10 6 15 21 9 22 17 26 48 26 21 0 52 8 69
19 17 10 41 22 55 26 13 4 87 41 164 83 77 42 166 89 198 104 73 36 236 134
347 209 115 79 122 85 118 103 -2 13 -12 9 -43 -19 -89 -79 -368 -245 -413
-245 -13 0 -17 9 -18 43 -1 23 -3 65 -4 92 -1 28 2 77 7 110 6 33 6 76 1 97
-4 21 -6 97 -3 170 6 153 6 205 1 233 -3 11 -5 25 -5 32 -1 6 -13 26 -28 44
-25 29 -28 42 -32 123 -11 229 -7 311 13 299 6 -3 2 4 -9 16 -16 18 -20 39
-22 100 -1 42 -3 90 -4 106 0 17 2 64 6 106 7 71 9 76 36 86 38 15 37 44 -1
66 -16 10 -43 29 -60 43 -28 24 -30 30 -30 99 0 61 -3 73 -18 77 -22 6 -62 -8
-62 -22 0 -5 -12 -10 -28 -10 -33 0 -86 45 -78 67 3 8 6 17 6 19 0 2 7 4 15 4
8 0 22 12 31 26 15 22 15 27 3 35 -8 5 -20 9 -26 9 -7 0 -13 5 -13 10 0 6 5
10 10 10 19 0 10 15 -23 38 -18 12 -43 22 -55 22 -36 0 -35 20 4 56 43 41 72
41 125 2 l30 -22 25 32 c14 17 32 32 40 32 22 0 16 17 -8 23 -13 4 -66 11
-118 18 -52 6 -97 12 -100 14 -3 1 -14 -1 -25 -5 -14 -5 -25 -1 -37 16 -10 12
-18 26 -18 31 0 4 -12 19 -26 32 -19 18 -22 26 -12 32 19 12 86 11 93 -2 5 -7
36 -8 94 -4 106 8 118 11 131 35 9 16 5 21 -22 34 -18 8 -43 17 -55 21 -13 3
-29 13 -37 20 -7 8 -25 17 -39 20 -22 6 -29 1 -49 -29 -16 -25 -29 -35 -43
-34 -18 3 -20 9 -16 58 4 72 16 100 41 100 17 0 20 7 20 38 0 21 -4 42 -9 48
-14 14 -18 69 -4 69 17 0 26 12 29 40 2 23 -1 25 -37 25 -44 0 -99 -33 -99
-60 0 -9 9 -25 20 -35 31 -28 25 -62 -18 -106 -24 -23 -35 -42 -30 -47 5 -5 8
-22 6 -36 -4 -36 -70 -76 -96 -60 -18 12 -29 54 -14 54 14 0 3 42 -17 69 -14
18 -29 24 -63 26 -66 3 -107 -5 -118 -24 -12 -24 5 -50 22 -33 32 32 138 -13
138 -60 0 -9 5 -20 10 -23 6 -3 10 -19 10 -34 0 -36 32 -65 62 -58 13 4 34 4
46 0 23 -6 23 -6 2 -20 -11 -8 -27 -28 -35 -44 -15 -28 -14 -31 7 -52 34 -32
45 -59 38 -86 -4 -20 -16 -27 -60 -38 -68 -18 -75 -18 -127 -9 -40 7 -42 6
-49 -21 -4 -15 -11 -31 -17 -34 -15 -10 1 -43 25 -54 13 -6 24 -17 26 -26 2
-12 -7 -15 -45 -15 l-48 1 -5 -65 -5 -65 -45 -5 -45 -5 -1 -54 c-1 -56 -18
-81 -56 -81 -19 0 -53 44 -45 57 3 5 0 19 -7 32 -12 21 -22 24 -82 27 -112 6
-144 16 -144 44 0 13 15 24 48 36 26 10 57 25 69 33 25 18 31 61 9 61 -8 0
-36 16 -62 36 -93 71 -210 75 -220 7 -6 -37 -24 -44 -103 -37 -95 8 -155 37
-159 77 -5 43 -28 32 -58 -28 -19 -39 -25 -65 -21 -88 3 -23 -1 -39 -14 -56
-34 -42 -26 -49 69 -56 110 -8 128 -15 81 -29 -20 -6 -42 -16 -50 -22 -32 -26
-101 -54 -133 -54 -46 0 -66 -9 -67 -29 0 -12 -2 -11 -9 4 -4 12 -10 68 -13
125 -4 58 -9 153 -13 213 -4 62 -3 107 2 107 5 0 20 -9 34 -20 26 -20 55 -26
64 -12 16 26 -41 131 -72 132 -26 2 -47 35 -53 88 -4 31 -10 81 -14 110 -4 28
-5 52 -1 52 20 0 46 -23 46 -40 0 -10 5 -22 11 -25 13 -8 6 -30 -9 -30 -7 0
-12 -3 -12 -7 0 -5 0 -15 0 -23 0 -12 5 -13 18 -7 9 5 22 8 27 5 6 -2 22 7 35
19 16 15 25 18 28 10 2 -7 9 -12 17 -12 7 0 18 -7 25 -15 8 -10 24 -13 53 -9
61 7 99 -7 108 -39 7 -26 -3 -37 -16 -17 -3 6 -11 10 -16 10 -6 0 -7 -5 -4
-11 8 -12 -63 -2 -80 11 -12 10 -55 8 -55 -2 0 -4 3 -14 6 -22 7 -18 -12 -56
-29 -57 -19 -1 35 -21 65 -24 19 -2 29 3 33 15 3 10 12 24 21 31 12 10 13 9 7
-7 -5 -14 -1 -12 18 7 14 15 33 25 47 24 12 -1 22 3 22 8 0 6 3 7 7 4 3 -4 11
-3 17 2 24 19 130 43 184 40 80 -3 92 -1 92 16 0 22 138 155 161 155 41 0 79
30 79 63 0 22 -36 23 -91 1 -49 -20 -153 -14 -214 12 -26 11 -67 18 -117 18
-64 1 -81 5 -102 24 -28 24 -90 30 -102 11 -5 -8 -29 -10 -75 -5 -38 3 -69 4
-69 2 0 -22 23 -56 38 -56 10 0 27 -7 38 -15 10 -8 27 -15 37 -15 9 0 17 -4
17 -8 0 -5 12 -14 26 -20 18 -9 24 -19 22 -35 -4 -32 -59 -23 -86 15 -7 10
-19 18 -25 18 -17 1 -57 36 -57 50 0 6 -4 8 -10 5 -5 -3 -10 3 -10 14 0 10 -6
22 -12 24 -10 4 -10 8 0 15 10 7 1 11 -29 16 -35 6 -46 4 -56 -10 -12 -16 -13
-16 -19 0 -10 26 3 196 18 236 11 30 18 35 47 38 57 4 56 19 -1 31 l-33 7 -3
74 c-4 89 16 330 28 345 15 18 50 176 50 224 0 59 -12 71 -71 71 -53 0 -60 6
-81 73 -14 42 -14 54 -2 94 8 25 14 83 14 127 0 68 -4 89 -27 135 -16 30 -46
75 -68 99 -37 40 -44 44 -73 37 -20 -4 -37 -16 -46 -33 l-14 -27 -12 44 c-6
23 -25 69 -41 101 -16 31 -29 62 -29 68 0 5 14 15 30 22 49 20 79 49 100 95
28 62 26 104 -9 145 -28 34 -30 35 -106 35 -76 0 -77 0 -111 -37 l-34 -38 -88
88 c-61 63 -132 118 -240 190 -85 56 -156 102 -159 102 -3 0 16 -21 41 -46 26
-25 44 -49 41 -54 -10 -16 -253 82 -269 109 -12 19 -39 13 -31 -6z m945 -393
c0 -23 -35 -44 -57 -36 -14 6 -13 10 7 31 28 30 50 32 50 5z m110 -492 c38
-65 43 -82 47 -153 5 -73 3 -86 -21 -132 -14 -28 -31 -55 -37 -59 -6 -4 -10
-3 -7 2 2 5 12 26 21 46 9 20 21 39 27 43 15 9 12 101 -4 138 -18 41 -69 97
-88 97 -21 0 -43 -28 -59 -75 -11 -33 -14 -36 -17 -17 -3 19 10 66 53 190 9
25 42 -7 85 -80z m-33 -86 c12 -16 27 -47 33 -69 11 -37 10 -46 -12 -94 -31
-67 -90 -160 -114 -179 -16 -13 -17 -13 -11 2 3 9 9 59 12 110 8 130 40 258
63 258 5 0 18 -13 29 -28z m-275 -74 c18 -29 43 -80 55 -113 l22 -60 -49 53
c-27 28 -56 52 -64 52 -26 0 -48 -59 -67 -175 -32 -189 -22 -240 44 -247 l32
-3 -39 -18 c-70 -31 -69 -35 -64 141 4 130 9 176 32 267 30 115 44 155 57 155
4 0 22 -24 41 -52z m84 -264 c24 -51 30 -89 16 -110 -8 -13 -108 -74 -121 -74
-4 0 -8 12 -8 28 0 15 -6 84 -13 153 -7 69 -10 135 -6 145 7 17 14 12 58 -36
27 -30 60 -78 74 -106z m276 49 c3 -16 7 -34 9 -42 5 -17 -31 -37 -83 -46 -49
-9 -49 2 5 64 48 57 63 62 69 24z m-416 -163 c9 -64 8 -70 -8 -70 -16 0 -18
10 -18 70 0 39 4 70 8 70 5 0 13 -31 18 -70z m554 23 c0 -37 0 -37 -16 -15
-20 29 -93 30 -164 2 -63 -25 -62 -25 -58 3 4 31 54 46 156 46 l82 1 0 -37z
m-290 -20 c0 -43 -13 -85 -22 -73 -8 10 4 120 13 120 5 0 9 -21 9 -47z m-63
-60 c-3 -10 -5 -2 -5 17 0 19 2 27 5 18 2 -10 2 -26 0 -35z m306 41 c9 -9 -42
-105 -67 -125 -32 -28 -70 -23 -111 12 -43 38 -45 66 -7 80 15 5 41 16 57 24
30 15 116 20 128 9z m-5 -161 c-51 -86 -75 -94 -138 -44 l-25 21 48 0 c44 0
52 4 93 45 24 25 45 53 45 63 1 11 3 10 6 -5 3 -13 -9 -45 -29 -80z m-468 -34
l-62 -72 4 -61 c6 -70 41 -146 86 -190 30 -28 41 -29 84 -11 14 6 16 -1 11
-57 -7 -94 -9 -97 -43 -57 -69 79 -190 287 -190 327 0 30 62 117 113 159 29
23 53 40 55 38 2 -2 -24 -36 -58 -76z m130 44 c0 -30 -26 -254 -36 -315 -3
-21 -12 -38 -19 -38 -27 0 -37 57 -34 184 l4 125 34 35 c42 43 51 45 51 9z
m132 -144 c27 -85 50 -161 51 -169 2 -17 -50 -27 -64 -13 -26 26 -70 348 -46
340 6 -2 32 -73 59 -158z m194 -128 c-4 -75 -9 -154 -12 -176 -3 -21 -6 -62
-8 -90 -7 -105 -19 -196 -27 -201 -5 -3 -9 -2 -9 3 0 4 -12 65 -26 136 l-26
127 41 40 c32 31 41 47 41 74 0 33 -35 138 -66 197 -14 29 -14 29 13 29 16 0
37 7 48 15 33 25 39 -4 31 -154z m-446 94 c0 -36 -4 -65 -9 -65 -16 0 -29 109
-14 123 17 17 23 2 23 -58z m344 -67 c11 -29 23 -57 27 -62 26 -29 -2 -116
-38 -116 -7 0 -13 -4 -13 -10 0 -5 -8 -10 -18 -10 -10 0 -22 -3 -25 -7 -4 -3
-18 -8 -32 -9 -31 -3 -52 33 -62 103 -6 48 1 52 21 11 20 -40 102 -41 132 -1
15 20 18 59 5 67 -5 3 -11 16 -14 28 -2 13 -8 31 -12 41 -4 9 -3 17 2 17 5 0
17 -24 27 -52z m-308 -271 c16 -17 40 -39 53 -48 l24 -15 1 -445 c1 -441 1
-444 -22 -489 -51 -103 -108 -175 -192 -243 -47 -38 -94 -76 -105 -86 -44 -36
-86 -63 -92 -57 -3 3 8 35 26 71 17 36 31 68 31 71 0 3 15 37 34 77 18 40 37
88 41 107 4 19 11 40 14 45 4 6 15 33 25 60 10 28 21 59 26 70 21 52 30 86 40
158 13 87 4 152 -31 222 l-20 41 30 114 c38 141 66 289 70 368 1 20 16 14 47
-21z m134 -212 c16 -174 19 -239 26 -595 7 -378 -3 -545 -47 -813 -19 -118
-21 -67 -3 124 17 184 16 403 -2 1238 -2 106 -1 217 3 245 l8 51 2 -70 c1 -38
7 -119 13 -180z m-4669 209 c10 -13 10 -17 -2 -25 -8 -5 -20 -9 -26 -9 -25 0
-28 -2 -45 -17 -25 -22 -82 -6 -86 24 -3 19 3 22 40 27 45 6 89 12 99 15 4 0
12 -6 20 -15z m4818 -56 c6 -35 20 -106 31 -158 21 -101 54 -348 70 -520 15
-154 24 -681 15 -864 -6 -143 -9 -157 -23 -142 -14 13 -14 30 -4 138 22 228
10 761 -24 1038 -13 112 -38 265 -59 375 -34 175 -39 208 -27 202 5 -4 15 -35
21 -69z m-74 51 c7 -11 44 -202 76 -394 23 -140 21 -169 -27 -302 -20 -54 -39
-109 -44 -123 -14 -45 -18 -2 -24 250 -3 135 -8 256 -11 270 -9 39 -19 276
-12 294 7 18 33 21 42 5z m-4985 -23 c0 -23 -26 -37 -54 -30 -32 8 -33 18 -3
32 31 15 57 14 57 -2z m287 8 c-3 -3 -12 -4 -19 -1 -8 3 -5 6 6 6 11 1 17 -2
13 -5z m4818 -806 c8 -32 -2 -104 -13 -94 -3 4 -11 -7 -16 -25 -6 -17 -24 -38
-39 -47 -24 -15 -29 -15 -38 -2 -11 18 -3 92 12 101 6 3 10 8 9 10 -4 7 23 94
33 107 14 18 44 -11 52 -50z m635 -199 c25 -45 -47 -94 -80 -54 -17 21 -9 48
20 62 35 18 48 16 60 -8z m-6754 -21 c73 -139 73 -138 -33 -136 -78 2 -95 8
-155 57 -16 13 -16 15 3 40 17 21 30 26 62 26 23 0 42 5 42 10 1 46 57 47 81
3z m6581 -4 c-3 -3 -12 -4 -19 -1 -8 3 -5 6 6 6 11 1 17 -2 13 -5z m-731 -82
c-15 -15 -16 -15 -16 0 0 9 5 20 10 23 6 3 11 16 11 28 2 16 3 14 6 -7 3 -18
-1 -35 -11 -44z m282 -44 c13 -91 15 -139 7 -160 -5 -12 -15 -10 -55 10 -28
14 -50 31 -50 40 0 8 18 33 40 54 46 45 48 55 19 92 -15 19 -16 24 -5 20 11
-4 16 -1 16 10 0 9 4 16 8 16 5 0 14 -37 20 -82z m1567 65 c17 -17 28 -40 38
-83 7 -30 -28 -61 -77 -66 -160 -16 -146 -17 -146 13 0 28 25 63 46 63 19 0
26 18 15 37 -8 15 -3 20 37 35 60 21 67 21 87 1z m-6990 -17 c22 -3 49 -46 36
-59 -8 -8 -35 -15 -96 -24 -22 -4 -44 -12 -50 -19 -13 -16 -65 -7 -65 12 0 8
4 14 10 14 5 0 15 11 23 26 19 36 65 64 96 58 14 -3 35 -7 46 -8z m260 -22
c27 -41 13 -72 -35 -80 -22 -4 -43 -11 -46 -15 -3 -5 -18 -9 -35 -9 -36 0 -40
26 -5 41 13 6 34 28 47 50 28 45 50 49 74 13z m-652 7 c4 -1 7 -6 7 -12 0 -7
-10 -9 -26 -5 -16 4 -33 2 -43 -7 -33 -27 -67 -36 -91 -24 -13 7 -25 17 -27
22 -7 22 84 35 180 26z m7525 -37 c28 -20 28 -30 -3 -50 -50 -33 -110 12 -63
48 28 22 38 22 66 2z m-1978 -71 c0 -82 -6 -88 -72 -77 l-53 9 38 39 c23 23
43 36 52 32 11 -4 15 1 15 18 0 20 7 36 17 36 2 0 3 -26 3 -57z m1170 36 c0
-5 6 -9 14 -9 25 0 77 -88 90 -149 1 -7 10 -18 20 -23 23 -13 85 -1 92 17 3 8
30 28 60 45 34 19 54 37 54 48 0 19 18 42 32 42 13 0 9 -38 -4 -42 -18 -6 -1
-26 37 -44 22 -10 35 -23 35 -35 0 -11 4 -19 10 -19 5 0 2 -16 -7 -35 -9 -19
-20 -35 -24 -35 -15 0 -19 -34 -7 -67 14 -39 3 -53 -42 -53 -14 0 -45 -14 -70
-30 -46 -30 -78 -37 -95 -21 -9 8 -80 16 -112 12 -7 0 -22 -19 -33 -41 -23
-46 -35 -53 -113 -71 -36 -7 -64 -20 -72 -32 -8 -12 -20 -17 -30 -13 -11 4
-15 1 -13 -11 2 -11 -5 -19 -17 -21 -24 -5 -37 -22 -30 -41 3 -7 0 -20 -6 -27
-6 -8 -8 -21 -5 -30 19 -49 -40 -98 -90 -76 -18 9 -24 19 -23 39 1 16 -2 48
-6 73 -5 25 -8 48 -7 52 1 3 -5 11 -13 18 -7 6 -11 18 -8 27 8 21 -27 13 -41
-10 -8 -13 -8 -20 4 -27 12 -7 12 -12 0 -34 -18 -35 -26 -33 -33 10 -4 25 -17
46 -39 64 -29 25 -31 29 -18 45 13 15 12 17 -10 13 -24 -3 -29 9 -31 77 -1 17
-3 23 -5 15 -3 -11 -15 -14 -44 -12 -22 2 -40 7 -40 11 0 4 -25 14 -55 21 -41
10 -55 18 -55 31 0 10 10 21 21 24 12 4 38 23 57 42 31 32 39 34 74 29 21 -4
47 -11 56 -17 14 -9 31 -5 78 17 39 18 86 31 139 36 44 5 96 11 115 13 41 5
123 34 98 35 -41 1 -35 46 17 111 19 24 35 49 35 56 0 6 6 13 13 16 17 5 47
-3 47 -14z m-460 -53 c0 -24 -23 -41 -41 -30 -5 3 -9 16 -9 30 0 19 5 24 25
24 20 0 25 -5 25 -24z m-4672 -8 c22 -22 14 -75 -14 -95 -14 -10 -39 -31 -56
-48 -28 -27 -38 -30 -92 -29 -117 1 -142 47 -57 102 27 18 55 32 62 32 8 1 39
12 69 25 64 28 72 29 88 13z m-453 -38 c18 -19 17 -21 -11 -49 -16 -16 -37
-41 -47 -55 -12 -17 -27 -26 -45 -26 -15 -1 -38 -7 -52 -15 -14 -8 -35 -14
-47 -15 -20 0 -29 7 -60 43 -10 13 -57 18 -173 20 -19 0 -76 -3 -127 -8 -91
-8 -93 -8 -128 -48 -32 -36 -39 -39 -72 -34 -20 4 -46 15 -58 27 -23 21 -65
26 -95 10 -10 -5 -27 -25 -39 -45 -11 -19 -24 -35 -30 -35 -18 0 -50 36 -53
60 -10 79 -119 112 -197 61 -30 -19 -89 -41 -113 -41 -10 0 -25 12 -35 26 -16
26 -19 26 -90 20 -41 -3 -87 -13 -103 -21 -34 -18 -52 -18 -103 -4 -46 12 -68
53 -43 78 30 29 459 46 683 26 72 -6 108 -4 160 8 38 9 79 17 93 17 142 6 367
-6 406 -20 20 -8 46 -5 105 11 44 12 92 19 107 17 15 -3 41 -2 57 2 56 14 91
11 110 -10z m657 -10 c49 -14 91 -70 53 -70 -8 0 -23 -5 -33 -11 -25 -16 -98
-4 -140 21 -37 23 -34 36 12 56 38 16 60 17 108 4z m3981 -145 c22 -14 27 -25
27 -56 0 -39 -16 -61 -30 -39 -5 7 -33 15 -64 18 -53 4 -56 6 -56 31 0 14 3
37 7 50 5 21 10 23 48 19 23 -3 53 -13 68 -23z m-3704 -111 c38 -32 40 -61 5
-70 -32 -8 -40 0 -48 54 -7 49 1 52 43 16z m3134 -1 c27 -15 -21 -38 -112 -52
-61 -10 -72 0 -34 27 52 36 109 46 146 25z m2414 -15 c35 -17 65 -147 43 -188
-12 -23 -60 -27 -122 -10 -27 8 -44 8 -59 0 -11 -7 -27 -9 -35 -6 -12 5 -12
11 2 45 8 21 15 45 13 52 -4 35 5 50 52 88 50 40 59 41 106 19z m-5716 -59
l41 -20 -34 -25 c-18 -14 -46 -32 -61 -40 -26 -14 -31 -14 -48 2 -27 25 -20
54 20 81 19 13 36 23 38 23 2 0 22 -9 44 -21z m4073 -11 c23 -15 33 -29 32
-44 0 -12 -3 -21 -5 -19 -2 3 -23 -9 -47 -25 -50 -35 -58 -37 -44 -11 5 11 10
35 10 55 0 33 8 66 16 66 2 0 19 -10 38 -22z m-5846 -30 c40 -33 82 -88 82
-108 0 -14 -14 -19 -72 -25 -40 -4 -92 -6 -114 -6 -36 1 -46 -4 -74 -35 -30
-35 -32 -35 -51 -18 -26 23 -24 58 4 81 12 10 29 29 38 43 9 14 34 42 55 63
33 33 44 38 72 33 18 -3 45 -15 60 -28z m7097 -42 c-23 -35 -75 -37 -75 -3 0
48 44 76 74 47 17 -17 17 -19 1 -44z m-1465 34 c0 -5 -7 -10 -15 -10 -8 0 -15
-4 -15 -9 0 -9 -60 -24 -68 -17 -9 10 27 36 41 30 8 -3 18 -1 22 5 8 14 35 14
35 1z m373 3 c-7 -2 -19 -2 -25 0 -7 3 -2 5 12 5 14 0 19 -2 13 -5z m-684 -37
c12 -18 30 -36 40 -39 22 -5 19 -39 -5 -68 -8 -9 -11 -19 -7 -24 5 -4 2 -5 -5
-1 -8 5 -16 -2 -22 -18 -10 -26 -48 -43 -75 -32 -18 7 -20 -10 -2 -18 6 -3 2
-3 -10 0 -29 7 -51 -5 -32 -17 11 -7 9 -13 -11 -29 -32 -25 -48 -26 -26 -1 10
11 15 25 11 31 -4 6 1 18 11 26 14 11 15 14 4 12 -8 -1 -26 4 -40 12 -14 7
-42 12 -62 11 -50 -3 -48 9 5 34 33 16 48 32 73 79 32 62 48 74 101 75 25 1
35 -6 52 -33z m-261 -4 c8 -11 9 -18 2 -20 -5 -2 -10 -9 -10 -16 0 -28 -38
-49 -75 -42 -31 6 -35 11 -35 36 0 44 33 73 73 65 18 -4 38 -14 45 -23z m-258
-5 c26 7 25 -5 -2 -34 -15 -16 -33 -23 -60 -23 -21 0 -38 4 -38 10 0 13 74 62
78 51 2 -5 12 -7 22 -4z m905 -34 l26 -38 -23 -18 c-13 -10 -88 -60 -168 -112
-174 -112 -193 -126 -187 -132 3 -2 24 9 48 25 148 98 285 182 296 182 3 0 14
6 22 14 9 8 60 37 114 65 101 52 163 65 207 41 35 -18 58 -72 65 -150 10 -110
-38 -398 -92 -555 -22 -64 -32 -78 -120 -161 -95 -91 -96 -91 -89 -130 4 -21
10 -60 13 -87 l5 -47 -80 -83 c-61 -63 -81 -90 -85 -118 -7 -50 19 -90 77
-118 62 -29 69 -50 63 -192 -6 -129 -16 -158 -71 -207 -41 -36 -49 -39 -147
-47 -65 -6 -80 -10 -102 -33 -36 -37 -56 -91 -72 -189 -15 -94 -35 -141 -105
-246 -63 -94 -96 -134 -106 -125 -4 4 -13 38 -20 75 -7 38 -29 124 -48 193
-19 69 -35 136 -36 149 0 14 -6 32 -14 40 -16 18 -97 334 -116 452 -11 70 -11
80 8 121 32 72 37 122 16 158 -10 16 -22 30 -26 30 -16 0 -8 31 18 69 14 22
39 72 55 111 52 128 35 213 -46 222 -35 4 -33 -20 -14 242 l13 179 54 53 c29
30 58 54 62 54 5 0 15 6 23 14 21 22 379 260 450 301 80 45 100 45 132 -2z
m-3504 17 c29 -16 25 -50 -6 -50 -27 0 -41 20 -31 45 6 18 11 18 37 5z m2746
-106 c-3 -3 -12 -4 -19 -1 -8 3 -5 6 6 6 11 1 17 -2 13 -5z m2313 -8 c6 -8 10
-34 8 -58 l-3 -43 53 -3 52 -3 0 -48 c0 -55 -12 -65 -65 -55 -28 5 -36 2 -50
-20 -10 -14 -23 -26 -30 -26 -7 0 -23 -24 -35 -54 -12 -30 -29 -57 -38 -61 -9
-3 -39 -3 -68 1 -58 7 -63 14 -54 79 4 30 10 41 25 43 39 6 65 25 65 48 0 24
-28 36 -53 22 -25 -13 -67 2 -79 28 -8 18 -7 29 6 49 20 30 39 32 77 4 28 -20
31 -20 55 -4 17 11 24 23 21 35 -7 26 14 52 54 66 45 16 45 16 59 0z m-742
-44 c3 -20 -30 -52 -55 -52 -17 0 -17 72 -1 88 16 16 52 -7 56 -36z m-5126 6
c29 -14 127 -72 218 -130 167 -107 230 -143 230 -133 0 3 -15 19 -32 35 l-33
30 24 20 c54 46 144 11 206 -81 16 -24 55 -72 88 -106 l58 -62 -17 -33 c-36
-69 -28 -229 18 -337 l21 -52 -32 -33 c-17 -18 -36 -48 -41 -67 -11 -36 -3
-179 10 -179 4 0 7 45 7 99 -1 110 5 125 61 148 38 16 39 22 12 56 -27 34 -60
166 -60 238 0 66 23 135 51 150 25 13 74 -13 162 -86 53 -44 67 -60 60 -73 -4
-10 -8 -107 -8 -217 0 -164 3 -212 19 -268 10 -37 23 -70 29 -74 7 -4 8 0 3
13 -32 78 -51 474 -26 538 10 28 50 37 50 11 0 -20 9 -19 32 2 14 13 49 19
146 26 210 14 207 12 176 78 -9 21 -13 25 -10 11 6 -28 -17 -40 -41 -21 -52
43 -70 177 -33 249 26 52 45 60 130 60 77 0 110 -12 149 -54 30 -32 20 -46
-18 -23 -71 42 -156 1 -181 -88 -7 -25 -10 -48 -7 -51 3 -3 9 10 12 29 4 20
21 48 40 67 27 26 41 32 76 32 36 -1 47 -7 80 -42 48 -51 109 -175 109 -221 0
-56 16 -67 30 -23 16 52 45 74 97 74 40 0 82 -24 121 -70 22 -26 60 -104 71
-148 14 -49 36 -55 46 -13 16 76 137 211 203 228 53 13 102 -45 102 -121 0
-60 18 -40 25 28 7 60 11 69 54 112 53 54 110 83 163 84 28 0 42 -7 62 -31 28
-33 33 -70 15 -132 -13 -49 -5 -58 16 -17 19 38 22 119 4 151 -19 36 -40 48
-85 49 -49 0 -55 10 -44 68 9 50 22 68 71 93 53 27 120 25 146 -3 30 -33 43
-63 43 -96 0 -41 -34 -144 -67 -202 -30 -54 -28 -65 10 -51 19 8 44 5 99 -11
66 -18 81 -19 162 -9 48 7 103 18 122 26 25 10 35 11 41 2 9 -12 1 -225 -13
-347 -3 -36 -4 -62 0 -59 12 12 34 165 41 289 8 149 10 160 37 160 19 0 20 -4
13 -117 -6 -100 -27 -251 -51 -368 -5 -21 -3 -27 4 -20 24 23 55 221 68 438
l6 97 64 80 c68 84 98 110 126 110 16 0 18 -12 18 -136 0 -74 -5 -167 -12
-206 -10 -65 -10 -72 7 -84 10 -8 31 -14 47 -14 35 0 48 -24 48 -88 0 -40 -10
-69 -48 -144 -26 -51 -54 -103 -62 -115 -12 -19 -11 -24 18 -57 37 -42 38 -46
15 -112 -23 -70 -63 -124 -127 -173 -31 -23 -56 -46 -56 -51 0 -5 9 -14 20
-20 38 -21 16 -122 -34 -155 -41 -27 -116 -43 -210 -44 -65 -1 -66 -3 -35 -78
18 -43 2 -75 -54 -107 -54 -32 -200 -65 -283 -66 -55 0 -63 3 -87 30 -15 17
-30 30 -35 30 -4 0 -29 -32 -57 -70 -47 -67 -71 -84 -79 -57 -2 6 -16 50 -31
96 -27 85 -25 100 12 101 18 0 136 41 149 51 6 5 33 16 60 24 171 50 417 284
484 458 16 43 30 84 30 90 0 21 -17 -7 -36 -58 -33 -90 -98 -177 -216 -291
-128 -123 -198 -164 -377 -224 -96 -32 -144 -36 -149 -10 -2 11 16 20 65 34
70 19 227 81 299 117 23 11 88 65 146 119 113 106 144 154 193 292 37 107 26
122 -14 18 -63 -167 -164 -300 -289 -384 -79 -52 -317 -146 -372 -146 -20 0
-42 6 -47 13 -13 15 -70 206 -117 387 -20 74 -39 145 -42 158 -9 33 14 20 51
-28 17 -22 62 -65 101 -95 56 -43 78 -55 106 -55 49 0 112 48 165 129 47 69
54 112 25 147 -33 41 -129 104 -198 130 l-69 28 -315 2 c-314 3 -315 3 -368
-21 -52 -24 -157 -91 -199 -129 -13 -11 -23 -31 -23 -46 0 -54 104 -181 182
-221 21 -10 56 -19 80 -19 38 0 48 6 100 57 32 31 60 54 63 51 8 -7 -122 -427
-137 -445 -13 -17 -37 -12 -123 22 -164 66 -311 158 -385 242 -81 91 -200 253
-200 272 0 5 -4 13 -10 16 -15 9 -1 -20 52 -111 59 -99 160 -219 236 -280 67
-53 320 -182 375 -191 43 -7 51 -15 42 -44 -23 -70 -318 72 -517 248 -73 64
-188 192 -188 208 0 4 -9 18 -20 32 -24 31 -25 27 -3 -18 26 -53 137 -189 200
-244 111 -98 287 -205 408 -250 102 -38 100 -34 69 -153 -15 -57 -32 -101 -38
-99 -6 2 -24 29 -40 60 -23 43 -34 56 -46 51 -8 -4 -46 -15 -83 -25 -38 -10
-71 -20 -75 -23 -11 -11 45 -6 94 9 65 20 71 19 78 -8 3 -13 19 -41 36 -62 30
-37 31 -42 25 -101 -7 -57 -5 -63 15 -74 28 -15 36 -7 58 61 l17 54 95 6 c102
7 124 13 155 42 49 46 61 41 107 -42 27 -49 55 -57 154 -43 100 15 114 20 114
39 0 10 -6 13 -17 8 -44 -17 -163 -37 -186 -31 -30 7 -81 76 -91 124 -4 17
-13 32 -20 32 -6 0 -31 -20 -56 -45 -33 -33 -55 -47 -92 -55 -62 -13 -135 -13
-143 0 -8 13 44 197 60 210 7 6 33 6 71 1 32 -5 135 -12 229 -15 93 -4 174
-11 179 -16 10 -10 75 -164 80 -189 4 -21 45 -51 62 -44 8 3 21 19 29 37 9 17
38 56 65 86 l49 55 43 -24 44 -24 123 21 c198 34 290 88 278 164 -3 18 -7 42
-9 53 -2 16 3 21 27 23 95 10 189 34 219 57 38 29 56 32 56 10 0 -69 156 -406
264 -574 74 -113 77 -142 11 -101 -20 12 -38 20 -41 17 -3 -2 11 -14 31 -26
35 -20 65 -70 65 -108 0 -10 7 -31 16 -48 11 -22 15 -58 15 -135 -1 -152 -37
-309 -91 -401 -15 -25 -31 -57 -35 -70 -10 -31 -77 -138 -134 -214 -124 -165
-226 -254 -428 -373 l-98 -57 -155 1 c-120 1 -173 6 -236 22 -87 21 -124 37
-124 52 0 5 -19 22 -42 36 -60 38 -216 197 -234 239 -15 38 -31 45 -41 19 -11
-28 28 -82 131 -186 54 -55 91 -98 80 -95 -70 21 -114 28 -213 36 -62 5 -115
11 -117 14 -3 3 11 26 30 52 38 49 44 65 23 65 -12 0 -28 -14 -106 -94 -25
-25 -48 -46 -52 -46 -4 0 20 53 53 117 45 90 58 126 56 153 -4 49 -18 44 -38
-15 -18 -52 -110 -236 -130 -260 -6 -8 -26 -17 -43 -20 -18 -4 -70 -20 -117
-35 -107 -36 -178 -49 -310 -57 -94 -5 -117 -3 -214 22 -119 29 -196 62 -270
116 -26 19 -61 44 -79 57 -50 36 -192 178 -208 209 -14 28 -31 57 -67 111 -29
42 -58 129 -76 223 -20 109 -21 292 -1 348 9 26 14 76 14 130 -2 128 29 173
153 225 29 13 79 35 111 51 83 39 205 47 264 17 l41 -21 57 40 c102 74 163 67
251 -28 54 -58 63 -64 82 -54 11 6 48 11 82 11 60 0 62 -1 110 -50 26 -27 51
-63 55 -80 9 -39 18 -44 59 -29 27 10 40 10 65 -1 46 -19 81 -65 82 -108 2
-70 11 -86 56 -97 51 -12 86 -42 113 -95 24 -47 40 -52 40 -11 0 40 119 167
175 186 32 11 39 18 37 35 -3 33 26 75 75 106 47 29 51 40 10 25 -36 -14 -105
-85 -109 -112 -2 -15 -17 -30 -42 -44 -44 -22 -97 -71 -138 -125 l-26 -35 -44
47 c-37 40 -50 48 -80 48 -41 0 -48 11 -48 73 0 79 -48 127 -140 142 -39 6
-54 17 -110 77 -61 66 -68 71 -115 75 -28 3 -68 0 -90 -6 -39 -11 -39 -11 -82
38 -57 65 -100 91 -152 91 -49 0 -69 -9 -129 -58 -43 -35 -44 -35 -72 -19 -61
36 -260 13 -340 -41 -50 -33 -123 -63 -133 -53 -6 6 0 33 16 73 14 34 32 83
41 108 43 125 176 464 185 473 7 7 31 -9 78 -55 87 -84 120 -100 213 -106 80
-5 90 -11 90 -55 0 -66 78 -127 161 -126 78 1 111 17 36 18 -72 1 -115 19
-151 61 -28 34 -30 57 -11 119 7 21 6 23 -16 15 -42 -15 -171 -10 -205 9 -50
26 -152 134 -174 184 -41 92 -39 149 7 203 l26 31 -75 77 c-41 42 -80 91 -88
107 -11 25 -14 27 -18 11 -2 -10 4 -36 14 -58 17 -38 17 -44 -5 -186 -43 -281
-119 -695 -135 -735 -8 -17 -19 -70 -25 -117 -8 -57 -20 -97 -36 -120 -33 -51
-49 -128 -36 -176 15 -52 14 -76 -3 -99 -13 -18 -23 -11 -158 125 -156 157
-214 196 -331 220 -32 6 -69 21 -82 33 -39 35 -66 157 -35 157 22 0 18 45 -10
129 -29 89 -71 296 -85 417 -7 65 -34 104 -82 118 -30 10 -50 77 -63 211 -13
143 -13 255 1 310 9 34 18 46 40 56 51 20 79 48 79 77 0 31 -45 84 -92 108
l-31 16 7 106 c12 193 54 417 92 498 9 18 32 48 52 65 33 29 39 31 93 26 32
-3 82 -16 111 -29z m378 -53 c0 -34 -22 -46 -73 -41 -30 3 -47 0 -50 -7 -3 -9
-8 -8 -20 2 -15 12 -15 15 7 32 13 11 29 19 35 19 6 0 11 4 11 10 0 5 12 16
28 24 24 13 29 13 45 -1 9 -9 17 -26 17 -38z m1335 5 c28 -10 73 -28 100 -40
28 -12 94 -35 147 -51 79 -24 116 -29 197 -29 88 0 110 4 202 36 57 20 139 54
181 75 42 21 79 35 82 30 3 -5 -3 -50 -14 -102 -11 -51 -20 -127 -20 -169 l0
-76 -37 -22 c-21 -11 -58 -41 -83 -66 -24 -25 -48 -46 -52 -46 -4 0 -18 11
-32 25 -15 15 -37 25 -54 25 -58 0 -201 -129 -218 -197 -10 -38 -29 -26 -54
34 -29 71 -102 147 -149 156 -40 8 -103 -7 -126 -29 -9 -9 -19 -14 -22 -11
-17 18 -71 173 -78 223 -4 33 -18 101 -31 153 -29 112 -29 115 -6 106 9 -4 40
-16 67 -25z m-550 -10 c3 -5 -1 -10 -9 -10 -9 0 -16 5 -16 10 0 6 4 10 9 10 6
0 13 -4 16 -10z m-1455 -4 c0 -3 -4 -8 -10 -11 -5 -3 -10 -1 -10 4 0 6 5 11
10 11 6 0 10 -2 10 -4z m5806 -9 c45 -100 54 -147 32 -164 -7 -5 -32 -16 -56
-23 -49 -15 -62 -7 -54 35 2 14 -5 39 -18 59 -21 35 -20 76 1 76 6 0 18 7 26
16 11 10 24 13 42 9 14 -4 26 -7 27 -8z m-2269 -57 c-2 -11 -12 -14 -37 -12
-47 5 -56 16 -34 45 l19 24 27 -21 c15 -11 26 -28 25 -36z m2861 28 c16 -16
15 -35 -3 -42 -22 -8 -41 2 -53 30 -11 22 -10 24 16 24 15 0 33 -5 40 -12z
m-7384 -80 c6 -31 4 -38 -9 -38 -16 0 -20 34 -9 65 8 20 10 18 18 -27z m4186
2 c0 -5 -4 -10 -10 -10 -5 0 -10 5 -10 10 0 6 5 10 10 10 6 0 10 -4 10 -10z
m-2280 -31 c0 -6 -4 -7 -10 -4 -5 3 -10 11 -10 16 0 6 5 7 10 4 6 -3 10 -11
10 -16z m2579 -5 c24 -5 35 -15 46 -42 18 -43 19 -53 2 -76 -12 -17 -17 -17
-50 -5 -29 10 -40 10 -49 1 -15 -15 -70 -16 -86 0 -25 25 -12 53 40 91 57 41
53 40 97 31z m-4739 -124 c-35 -22 -65 5 -39 36 11 13 15 13 33 -6 18 -18 19
-22 6 -30z m7050 5 c0 -16 -35 -21 -44 -6 -8 12 4 21 26 21 10 0 18 -7 18 -15z
m295 -78 c13 -62 14 -62 -45 -68 -30 -3 -58 -4 -62 -2 -19 10 -7 68 18 94 25
27 28 27 55 13 16 -8 31 -24 34 -37z m-4538 31 c4 -7 9 -22 10 -33 1 -11 5
-33 9 -49 6 -24 4 -28 -9 -23 -9 3 -19 3 -21 -2 -6 -9 -68 -7 -85 3 -15 10
-14 103 2 109 25 10 86 7 94 -5z m-2802 -63 c0 -10 -5 -20 -11 -22 -13 -4 -27
24 -18 38 9 15 29 4 29 -16z m6235 5 c0 -5 -5 -10 -11 -10 -5 0 -7 5 -4 10 3
6 8 10 11 10 2 0 4 -4 4 -10z m-5602 -11 c26 -7 53 -16 59 -21 19 -15 -2 -46
-43 -63 -19 -8 -37 -21 -40 -29 -7 -17 45 -126 64 -133 26 -11 42 -59 31 -92
-14 -39 -23 -39 -66 -1 -41 36 -53 37 -83 5 -23 -25 -24 -25 -42 -5 -27 29
-72 26 -93 -6 l-16 -25 -24 25 c-26 29 -37 31 -66 16 -16 -9 -21 -7 -29 15
-12 31 -13 95 -2 95 4 0 13 15 20 33 20 54 84 117 131 128 23 5 52 7 65 3 19
-4 28 0 42 23 17 25 33 42 42 43 2 0 24 -5 50 -11z m5597 -29 c-3 -5 -10 -10
-16 -10 -5 0 -9 5 -9 10 0 6 7 10 16 10 8 0 12 -4 9 -10z m444 0 c10 -5 24
-24 31 -41 12 -28 12 -33 -6 -46 -10 -8 -30 -13 -44 -11 -20 2 -26 9 -28 35
-3 29 11 73 24 73 3 0 13 -4 23 -10z m-6886 -172 c8 -13 23 -32 34 -43 26 -28
43 -71 43 -106 0 -32 -23 -64 -39 -54 -5 3 -45 10 -87 15 -43 6 -82 14 -88 20
-16 16 11 83 56 139 23 28 47 51 54 51 6 0 18 -10 27 -22z m217 -207 c0 -5 -7
-11 -15 -15 -9 -3 -15 0 -15 9 0 8 7 15 15 15 8 0 15 -4 15 -9z m6021 -98 c1
-5 2 -30 3 -58 1 -40 5 -50 19 -53 13 -3 6 -11 -28 -28 -28 -15 -54 -23 -66
-19 -28 9 -24 19 16 41 19 10 35 25 35 32 0 12 -3 12 -15 2 -24 -20 -19 26 5
50 11 11 15 20 9 20 -5 0 -7 5 -4 10 7 12 24 13 26 3z m-2427 -28 c3 -8 3 -21
0 -29 -6 -16 -258 -196 -274 -196 -6 0 -23 14 -38 31 -92 108 -68 145 114 177
65 12 133 23 149 25 17 2 33 5 36 6 4 0 9 -6 13 -14z m3956 0 c37 -19 47 -50
25 -75 -21 -23 -12 -80 13 -80 27 0 -17 -26 -58 -35 -19 -4 -40 -11 -45 -16
-6 -4 -26 -10 -45 -13 -59 -8 -80 -18 -80 -37 0 -10 -9 -23 -20 -29 -23 -12
-26 -4 -6 19 7 9 35 57 61 106 53 100 81 144 105 162 19 16 16 16 50 -2z
m-3498 -33 c26 -15 63 -42 82 -60 35 -31 35 -33 20 -57 -20 -30 -78 -75 -98
-75 -18 0 -174 105 -235 158 -26 23 -41 43 -37 50 5 8 44 12 114 12 98 0 111
-2 154 -28z m-4162 -89 c0 -5 -41 16 -57 29 -7 6 -10 14 -7 19 4 7 64 -37 64
-48z m3804 5 c8 -29 33 -123 54 -208 22 -85 52 -195 67 -245 46 -152 51 -175
34 -186 -20 -14 -375 -7 -389 7 -13 13 2 68 122 437 45 136 85 247 89 247 4 0
14 -24 23 -52z m2158 -78 c3 -52 0 -60 -21 -60 -15 0 -23 87 -11 111 17 30 28
12 32 -51z m-5342 -39 c22 -41 6 -121 -24 -121 -25 0 -50 113 -29 133 13 14
43 7 53 -12z m224 3 c24 -23 20 -79 -6 -104 -24 -22 -28 -23 -52 -14 -20 8
-23 119 -3 127 24 10 46 7 61 -9z m6150 -69 c6 -18 -2 -45 -21 -63 -11 -11
-17 -11 -28 -2 -21 17 -19 40 7 61 26 23 34 24 42 4z m-6074 -132 c49 -3 92 1
124 11 33 10 56 12 73 5 13 -5 51 -9 84 -9 55 0 63 -3 96 -35 19 -19 43 -37
53 -40 24 -8 40 -48 40 -105 0 -26 12 -106 26 -177 41 -195 40 -191 11 -219
-15 -13 -31 -43 -37 -67 -6 -23 -16 -54 -21 -69 -6 -15 -16 -97 -23 -182 l-12
-154 -33 -28 c-45 -38 -60 -53 -78 -80 -8 -13 -22 -24 -29 -24 -8 0 -53 80
-108 194 -86 177 -99 197 -143 231 -57 43 -55 39 -97 157 -62 171 -149 318
-198 334 -15 4 -18 16 -18 67 -1 34 -7 92 -14 129 -7 37 -11 70 -8 73 3 3 30
6 61 6 31 1 70 5 86 8 19 5 41 2 60 -7 17 -9 64 -17 105 -19z m5994 -59 c-51
-109 -70 -134 -102 -134 -35 0 -75 -27 -106 -70 -32 -45 -164 -292 -210 -394
-48 -106 -105 -198 -121 -194 -6 2 -41 38 -77 80 l-66 77 5 128 c6 138 -6 213
-33 213 -16 0 -81 -45 -101 -70 -20 -25 -31 0 -41 95 -7 59 -7 107 -1 140 5
28 12 82 15 120 l6 70 162 1 c88 0 188 2 221 3 33 2 130 1 215 -2 131 -5 163
-3 205 12 28 9 54 14 58 11 4 -4 -9 -42 -29 -86z m-94 -178 c0 -7 -11 -21 -25
-30 l-24 -16 20 -47 c40 -92 59 -191 58 -313 0 -74 -5 -129 -14 -155 -8 -22
-15 -45 -15 -51 0 -6 27 -42 60 -80 126 -145 163 -286 136 -510 l-9 -71 38
-34 c117 -106 173 -296 159 -540 l-7 -115 41 -65 c51 -81 78 -169 92 -300 6
-57 14 -107 16 -111 13 -21 24 8 24 62 0 126 -42 269 -108 364 -27 39 -27 41
-28 215 0 146 -4 189 -22 253 -29 107 -62 165 -122 221 l-53 49 9 66 c8 60 9
180 2 286 -3 38 0 43 57 89 78 63 103 76 194 97 83 19 241 44 247 38 12 -13
15 -217 4 -326 l-12 -127 36 -72 c68 -136 75 -249 24 -401 -18 -54 -20 -75
-13 -155 10 -136 10 -141 -4 -282 -14 -137 -45 -247 -85 -296 -30 -38 -147
-135 -171 -142 -11 -3 -45 -15 -75 -26 -85 -32 -146 -38 -171 -15 -33 29 -68
105 -129 279 -32 88 -87 239 -124 335 -194 503 -270 754 -311 1019 -34 217
-36 372 -6 453 28 73 143 298 187 365 52 79 124 131 124 89z m-783 -132 c8
-60 9 -98 3 -118 -15 -44 -5 -43 29 4 36 50 107 104 127 96 12 -5 15 -33 13
-156 -1 -149 0 -151 25 -183 92 -114 116 -148 116 -169 0 -21 -73 -122 -138
-191 -26 -28 -30 -29 -92 -23 -75 8 -84 2 -135 -89 -38 -68 -84 -115 -112
-115 -28 0 -72 21 -129 62 -30 22 -50 29 -75 26 -30 -3 -37 -9 -58 -53 -33
-70 -70 -98 -117 -89 -36 7 -36 7 -30 48 13 86 8 222 -8 254 -22 43 -11 114
23 148 48 49 67 57 102 45 18 -6 35 -11 39 -11 4 0 26 37 49 83 48 92 98 144
145 149 l31 4 -29 8 c-54 16 -89 -19 -163 -161 -24 -48 -30 -53 -60 -53 -45 0
-50 19 -18 66 52 76 96 180 107 250 14 94 35 152 63 170 13 8 55 18 95 21 60
5 80 12 119 39 25 18 51 32 56 30 6 -1 15 -43 22 -92z m-2204 10 c148 -5 168
-8 165 -23 -4 -22 -132 -33 -310 -25 -123 6 -138 8 -143 25 -10 31 2 37 63 33
31 -2 133 -7 225 -10z m-2355 -251 c13 -26 16 -46 11 -63 -34 -116 28 -219
141 -236 102 -15 240 -114 310 -224 17 -26 62 -72 99 -100 l68 -52 6 -141 c3
-78 9 -152 13 -164 6 -21 3 -23 -29 -23 -46 0 -76 31 -102 106 -30 85 -46 90
-103 29 -55 -59 -145 -135 -160 -135 -6 0 -22 19 -36 43 -30 50 -49 164 -40
231 9 64 -8 66 -98 12 -98 -60 -111 -60 -102 -1 9 62 -8 66 -104 26 -43 -17
-80 -31 -84 -31 -9 0 -68 114 -68 131 0 6 20 29 44 51 25 21 59 57 77 79 31
39 33 47 46 187 7 80 21 171 29 201 17 59 43 111 56 111 4 0 16 -17 26 -37z
m-1468 -247 c104 -16 95 -9 184 -144 85 -130 116 -183 116 -201 0 -6 -15 -35
-34 -64 -57 -88 -80 -195 -80 -372 l-1 -151 -44 -69 c-24 -39 -53 -83 -63 -98
-45 -65 -58 -132 -58 -291 1 -83 7 -200 14 -260 13 -102 12 -176 -3 -176 -14
1 -117 252 -141 346 -11 41 -24 137 -30 212 -5 75 -17 157 -26 182 -24 68 -64
250 -64 294 0 55 28 159 58 220 29 57 29 56 15 251 -11 155 -1 296 22 331 14
22 17 22 53 10 20 -7 57 -17 82 -20z m2282 -1273 c6 -64 4 -68 -42 -70 -34 -2
-38 0 -32 15 14 34 56 102 63 102 4 0 9 -21 11 -47z m3008 -214 c0 -11 -4 -18
-10 -14 -5 3 -7 12 -3 20 7 21 13 19 13 -6z m-1083 -161 c-2 -24 -4 -5 -4 42
0 47 2 66 4 43 2 -24 2 -62 0 -85z m-233 55 c3 -16 8 -59 12 -98 4 -38 10 -80
15 -92 18 -48 -43 -123 -99 -123 -35 0 -128 76 -169 138 -19 27 -43 29 -50 2
-6 -24 -12 -24 -37 -5 -27 20 -27 20 -87 -25 -30 -22 -56 -40 -60 -40 -10 0
-29 125 -29 194 0 36 4 66 9 66 5 0 33 -16 63 -35 72 -48 93 -52 130 -25 22
16 33 19 41 11 14 -14 53 -14 79 0 27 15 150 58 165 59 6 0 14 -12 17 -27z"/>
<path d="M7380 4841 c-8 -15 -8 -27 0 -41 9 -16 8 -22 -5 -26 -27 -11 -16 -24
19 -24 36 0 55 13 36 25 -8 5 -8 11 0 20 6 8 10 24 8 37 -4 31 -43 37 -58 9z"/>
<path d="M6963 4501 c-15 -24 -8 -31 34 -31 37 0 41 9 15 33 -24 22 -34 21
-49 -2z"/>
<path d="M7060 4420 c0 -5 5 -10 10 -10 6 0 10 5 10 10 0 6 -4 10 -10 10 -5 0
-10 -4 -10 -10z"/>
<path d="M7210 4370 c0 -5 7 -7 15 -4 8 4 15 8 15 10 0 2 -7 4 -15 4 -8 0 -15
-4 -15 -10z"/>
<path d="M8070 4080 c0 -5 4 -10 9 -10 6 0 13 5 16 10 3 6 -1 10 -9 10 -9 0
-16 -4 -16 -10z"/>
<path d="M3289 3553 c-22 -108 4 -362 41 -396 10 -10 11 -7 6 13 -29 112 -37
179 -33 283 2 62 8 122 12 135 4 13 3 22 -3 22 -6 0 -16 -26 -23 -57z"/>
<path d="M5283 2076 c-33 -19 -103 -95 -93 -101 9 -6 28 10 60 51 9 11 29 29
45 41 32 24 25 29 -12 9z"/>
<path d="M5460 2085 c0 -4 99 -75 105 -75 8 0 64 64 65 73 0 15 -20 6 -44 -19
l-24 -27 -29 20 c-25 18 -73 36 -73 28z"/>
<path d="M5753 2056 c33 -30 37 -39 37 -84 0 -28 4 -53 8 -56 5 -3 26 2 48 10
35 13 36 14 8 10 -34 -5 -43 8 -44 64 -1 29 -14 49 -50 73 -42 29 -46 19 -7
-17z"/>
<path d="M5009 1997 c-33 -15 -75 -51 -113 -97 -19 -24 -40 -37 -65 -41 -29
-6 -25 -7 19 -5 48 1 55 4 58 23 3 21 45 65 107 110 34 25 32 28 -6 10z"/>
<path d="M5127 1999 c7 -7 15 -10 18 -7 3 3 -2 9 -12 12 -14 6 -15 5 -6 -5z"/>
<path d="M4325 1945 c3 -33 10 -91 15 -130 5 -38 9 -103 10 -142 0 -42 4 -73
10 -73 15 0 12 138 -5 257 -19 122 -39 181 -30 88z"/>
<path d="M4740 1850 c-12 -8 -12 -10 5 -10 11 0 27 5 35 10 12 8 12 10 -5 10
-11 0 -27 -5 -35 -10z"/>
<path d="M4213 1306 c-25 -22 -27 -30 -26 -89 1 -77 23 -126 56 -127 4 0 28
21 53 47 l46 47 39 -22 c85 -49 129 -20 129 86 0 80 -13 87 -90 45 l-56 -32
-44 28 c-68 42 -77 43 -107 17z"/>
<path d="M3254 1068 c11 -107 181 -416 212 -385 8 8 -9 44 -51 112 -40 63
-135 264 -135 285 0 26 -10 50 -22 50 -7 0 -8 -22 -4 -62z"/>
<path d="M5517 1067 c-3 -9 -26 -48 -50 -85 -59 -90 -143 -260 -133 -269 4 -5
19 6 32 22 38 47 166 310 162 331 -3 18 -4 18 -11 1z"/>
<path d="M6562 2213 c-50 -60 -56 -65 -85 -59 -30 5 -31 5 -13 -9 11 -8 25
-15 31 -15 13 0 45 34 94 98 53 68 31 57 -27 -15z"/>
<path d="M5180 8184 c0 -15 39 -44 58 -43 13 0 14 2 2 6 -8 3 -25 15 -37 26
-13 11 -23 16 -23 11z"/>
<path d="M6470 7970 c0 -5 -11 -15 -25 -23 l-26 -13 21 -19 c18 -16 23 -17 30
-5 10 16 14 70 5 70 -3 0 -5 -4 -5 -10z"/>
<path d="M6390 7949 c0 -5 5 -7 10 -4 6 3 10 8 10 11 0 2 -4 4 -10 4 -5 0 -10
-5 -10 -11z"/>
<path d="M6710 7911 c0 -5 -10 -12 -22 -16 -22 -7 -22 -7 -3 -12 10 -3 21 0
23 6 2 6 10 11 18 11 9 0 12 -4 9 -10 -3 -5 2 -10 12 -10 10 0 24 9 31 20 11
19 10 20 -28 20 -22 0 -40 -4 -40 -9z"/>
<path d="M6435 7869 c-10 -15 3 -25 16 -12 7 7 7 13 1 17 -6 3 -14 1 -17 -5z"/>
<path d="M6616 7857 c-16 -11 -16 -15 -3 -25 12 -10 15 -8 19 13 6 29 7 29
-16 12z"/>
<path d="M2360 7806 c0 -19 17 -29 25 -16 3 5 16 10 28 10 12 0 29 5 37 10 11
7 0 10 -37 10 -40 0 -53 -4 -53 -14z"/>
<path d="M6587 7805 c-17 -13 -24 -31 -8 -21 5 4 11 2 13 -3 2 -6 10 -4 19 2
13 9 14 15 4 23 -8 8 -16 8 -28 -1z"/>
<path d="M4843 7668 c3 -73 11 -241 17 -373 9 -167 10 -385 5 -715 -10 -585
-11 -605 -24 -764 -6 -71 -11 -143 -10 -160 1 -30 1 -30 9 -6 17 49 47 617 53
990 l2 145 163 3 c212 3 232 -2 279 -76 50 -78 133 -185 252 -325 56 -66 102
-120 102 -120 1 -1 5 -49 9 -107 l7 -105 1 137 c2 124 -8 223 -37 378 -15 77
-118 433 -140 480 -41 90 -38 91 146 61 138 -23 207 -29 211 -18 8 25 0 64
-17 74 -11 7 -86 20 -168 29 -81 9 -150 18 -152 20 -6 5 24 41 114 139 50 54
92 102 93 107 5 13 -18 38 -35 38 -7 0 -53 -38 -101 -84 -166 -160 -192 -179
-192 -138 0 37 -42 177 -57 192 -14 13 -15 12 -9 -10 31 -111 58 -222 54 -225
-4 -5 -334 15 -355 21 -13 3 -62 104 -93 189 -10 28 -27 70 -39 95 -31 68 -16
5 25 -105 42 -111 99 -231 216 -448 49 -93 87 -171 84 -174 -7 -7 -345 -5
-356 2 -6 4 -10 66 -10 143 -1 75 -5 182 -10 237 -4 55 -12 185 -16 290 -7
176 -6 189 9 176 10 -7 17 -20 17 -29 0 -8 3 -12 7 -9 6 7 -46 177 -54 177 -3
0 -3 -60 0 -132z m794 -305 c-131 -135 -142 -150 -127 -168 8 -10 31 -15 64
-15 28 0 78 -4 110 -10 33 -5 85 -10 117 -11 47 -2 60 -6 64 -20 8 -25 -3 -42
-24 -34 -85 33 -349 65 -392 47 -15 -6 -72 -74 -170 -203 -29 -36 -49 -34 -32
4 6 13 38 57 71 98 33 41 62 83 64 94 5 29 -37 45 -117 45 -95 0 -175 11 -175
23 0 9 96 6 291 -9 l66 -5 133 141 c82 87 137 137 143 131 5 -5 -28 -47 -86
-108z m-289 -218 c9 -8 -121 -165 -137 -165 -10 0 -101 154 -101 171 0 8 33 9
118 4 64 -4 118 -9 120 -10z m139 -52 c35 -54 102 -259 143 -438 32 -140 56
-313 45 -323 -7 -8 -19 6 -114 128 -36 45 -70 88 -77 95 -34 33 -143 189 -138
196 8 14 26 11 67 -11 41 -22 47 -24 47 -12 0 13 -73 51 -114 59 -29 6 -42 17
-59 46 -21 37 -21 38 -2 70 10 17 46 65 79 105 34 41 68 82 76 92 20 26 26 25
47 -7z"/>
<path d="M6964 7762 c3 -5 0 -13 -6 -15 -9 -4 -10 -6 -1 -6 17 -1 25 16 12 25
-7 4 -9 3 -5 -4z"/>
<path d="M7038 7733 c7 -3 16 -2 19 1 4 3 -2 6 -13 5 -11 0 -14 -3 -6 -6z"/>
<path d="M3566 7593 c-6 -14 -5 -15 5 -6 7 7 10 15 7 18 -3 3 -9 -2 -12 -12z"/>
<path d="M3551 7514 c0 -11 3 -14 6 -6 3 7 2 16 -1 19 -3 4 -6 -2 -5 -13z"/>
<path d="M3531 7424 c0 -11 3 -14 6 -6 3 7 2 16 -1 19 -3 4 -6 -2 -5 -13z"/>
<path d="M2321 7378 c-18 -28 -62 -160 -56 -166 2 -3 7 4 11 14 3 10 16 42 29
69 21 46 39 105 33 105 -2 0 -9 -10 -17 -22z"/>
<path d="M4131 7374 c0 -11 3 -14 6 -6 3 7 2 16 -1 19 -3 4 -6 -2 -5 -13z"/>
<path d="M3516 7343 c-26 -125 -38 -268 -43 -533 -3 -162 -3 -293 0 -290 4 3
11 126 17 272 6 147 17 336 25 420 13 146 14 192 1 131z"/>
<path d="M4123 7315 c0 -22 2 -30 4 -17 2 12 2 30 0 40 -3 9 -5 -1 -4 -23z"/>
<path d="M4101 7200 c-7 -41 -17 -111 -22 -155 -4 -44 -13 -116 -18 -160 -18
-147 -24 -552 -12 -820 11 -240 37 -465 56 -483 8 -7 4 48 -20 253 -11 94 -15
239 -15 525 0 388 5 485 36 745 18 147 15 209 -5 95z"/>
<path d="M3091 7060 c-15 -55 -53 -333 -62 -450 -14 -194 -6 -612 15 -815 25
-228 69 -450 92 -459 17 -7 17 -9 -1 59 -51 199 -77 452 -82 825 -6 339 1 480
33 697 9 56 14 112 11 125 -2 13 -5 21 -6 18z"/>
<path d="M7597 6708 c-19 -15 -12 -30 20 -46 31 -17 53 -5 53 29 0 25 -4 29
-28 29 -16 0 -36 -6 -45 -12z"/>
<path d="M8704 6689 c-22 -25 -14 -32 20 -19 15 5 32 8 37 5 5 -4 6 1 3 8 -9
24 -41 27 -60 6z"/>
<path d="M7530 6531 c0 -23 20 -59 36 -65 20 -8 43 19 44 52 0 19 -5 22 -40
22 -22 0 -40 -4 -40 -9z"/>
<path d="M8533 6513 c-26 -5 -32 -33 -7 -33 23 0 55 20 49 31 -4 5 -9 8 -13 8
-4 -1 -17 -4 -29 -6z"/>
<path d="M5280 6355 c-1 -5 -3 -30 -4 -55 l-1 -45 -75 -17 c-86 -18 -186 -23
-195 -8 -3 6 -11 10 -17 10 -7 0 -2 -9 11 -21 26 -24 20 -36 -35 -70 -29 -17
-33 -25 -28 -47 4 -15 8 -30 10 -34 2 -3 39 14 81 38 42 24 79 42 81 39 2 -2
-6 -14 -18 -27 -44 -47 -54 -79 -58 -191 -4 -94 -2 -114 18 -159 31 -72 93
-158 106 -146 3 3 -6 17 -19 30 -28 28 -50 115 -45 175 3 35 6 38 38 43 51 8
70 1 70 -25 0 -29 26 -57 49 -53 9 2 24 20 34 40 l18 37 22 -20 c12 -12 32
-25 45 -30 12 -5 27 -20 34 -34 10 -23 8 -29 -20 -58 -26 -27 -62 -92 -62
-112 0 -3 8 -5 19 -5 19 0 51 43 89 116 15 29 23 70 28 141 6 97 6 101 -21
149 -37 65 -71 101 -120 127 l-40 22 34 3 c19 2 44 -1 55 -7 12 -5 38 -15 58
-21 42 -13 106 -78 137 -139 17 -33 21 -59 21 -142 0 -56 3 -99 8 -95 4 4 14
28 22 54 12 36 20 48 38 50 l24 4 -21 22 c-11 12 -25 44 -30 72 -5 27 -15 62
-21 79 -31 81 -140 166 -243 189 l-52 11 -11 60 c-7 33 -13 56 -14 50z m-82
-273 c4 -28 -14 -52 -40 -52 -23 0 -32 22 -24 56 5 20 12 25 34 22 19 -2 28
-9 30 -26z"/>
<path d="M4711 6325 c-30 -401 -32 -429 -47 -675 -4 -58 -4 -102 0 -99 15 14
63 698 54 764 -3 17 -6 21 -7 10z"/>
<path d="M3471 6314 c0 -11 3 -14 6 -6 3 7 2 16 -1 19 -3 4 -6 -2 -5 -13z"/>
<path d="M1060 6290 c0 -5 4 -10 9 -10 6 0 13 5 16 10 3 6 -1 10 -9 10 -9 0
-16 -4 -16 -10z"/>
<path d="M6852 6253 c-10 -4 -10 -8 0 -21 10 -12 10 -14 1 -8 -7 4 -13 3 -13
-2 0 -23 55 -29 75 -9 18 19 2 41 -23 34 -12 -2 -22 -2 -24 3 -2 4 -9 5 -16 3z"/>
<path d="M7036 6241 c-3 -5 1 -11 9 -14 9 -4 12 -1 8 9 -6 16 -10 17 -17 5z"/>
<path d="M8065 6230 c-3 -5 1 -10 10 -10 9 0 13 5 10 10 -3 6 -8 10 -10 10 -2
0 -7 -4 -10 -10z"/>
<path d="M3473 6185 c0 -27 2 -38 4 -22 2 15 2 37 0 50 -2 12 -4 0 -4 -28z"/>
<path d="M7523 6193 c-21 -8 -15 -20 13 -27 32 -8 57 10 34 24 -16 10 -28 11
-47 3z"/>
<path d="M8016 6183 c-23 -12 -36 -13 -66 -4 -51 15 -67 14 -74 -6 -3 -10 -8
-23 -12 -29 -3 -9 24 -12 100 -10 59 0 106 3 106 7 0 3 -4 9 -9 15 -5 5 -11
17 -13 26 -3 15 -6 15 -32 1z"/>
<path d="M8065 6170 c-3 -5 -2 -10 4 -10 5 0 13 5 16 10 3 6 2 10 -4 10 -5 0
-13 -4 -16 -10z"/>
<path d="M3478 6107 c-22 -54 21 -466 65 -632 20 -74 19 -3 -2 116 -21 119
-49 371 -54 474 -1 38 -5 53 -9 42z"/>
<path d="M8770 6095 c-6 -8 -10 -20 -7 -27 2 -7 1 -22 -4 -34 -12 -32 29 -75
66 -68 35 6 80 40 65 49 -6 3 -8 10 -5 14 2 5 -7 6 -21 3 -20 -3 -32 2 -49 22
-13 15 -21 34 -18 42 7 18 -11 18 -27 -1z"/>
<path d="M2731 6005 c-2 -89 49 -335 114 -548 59 -197 91 -284 102 -274 6 7
-3 41 -67 242 -21 66 -48 163 -59 215 -12 52 -26 109 -32 127 -5 17 -17 73
-26 125 -31 184 -30 181 -32 113z"/>
<path d="M8956 6047 c3 -10 -1 -15 -12 -14 -34 3 -26 -30 11 -52 20 -11 38
-21 41 -21 3 0 4 21 2 48 -3 40 -6 47 -25 50 -17 3 -21 -1 -17 -11z"/>
<path d="M7932 5968 c-7 -7 -24 -12 -40 -13 -32 0 -38 -28 -6 -33 12 -2 26
-14 33 -28 7 -16 18 -24 29 -22 13 2 18 15 20 56 3 54 -9 67 -36 40z"/>
<path d="M2860 5883 c0 -56 25 -205 54 -328 19 -77 37 -158 40 -180 4 -22 13
-56 20 -75 22 -54 56 -169 56 -185 0 -8 5 -15 11 -15 16 0 7 46 -29 165 -65
214 -105 397 -129 583 -6 43 -23 69 -23 35z"/>
<path d="M5692 5871 c-11 -7 -11 -9 2 -14 10 -4 16 -1 16 8 0 17 -1 17 -18 6z"/>
<path d="M3353 5848 c3 -13 9 -63 13 -112 11 -143 24 -154 18 -16 -3 69 -7
131 -9 138 -8 22 -27 13 -22 -10z"/>
<path d="M5692 5713 c-6 -60 -16 -146 -22 -192 -12 -96 -56 -297 -71 -325 -7
-12 -7 -22 -1 -28 11 -11 12 -8 47 132 28 110 56 290 62 408 3 61 4 112 1 112
-2 0 -10 -48 -16 -107z"/>
<path d="M3954 5687 c3 -83 8 -133 16 -140 9 -9 10 9 5 83 -13 166 -25 199
-21 57z"/>
<path d="M8667 5759 c8 -8 16 -8 30 0 16 9 14 10 -11 11 -22 0 -27 -3 -19 -11z"/>
<path d="M8470 5750 c0 -6 7 -10 15 -10 8 0 15 2 15 4 0 2 -7 6 -15 10 -8 3
-15 1 -15 -4z"/>
<path d="M5825 5693 c-8 -64 -73 -338 -91 -386 -17 -45 -19 -81 -4 -57 32 49
134 448 123 477 -10 26 -22 12 -28 -34z"/>
<path d="M8933 5723 c-34 -12 6 -103 45 -103 21 0 23 4 20 47 -3 40 -6 48 -28
53 -14 4 -31 5 -37 3z"/>
<path d="M7670 5670 c0 -25 67 -130 83 -130 34 1 38 16 17 66 -27 62 -47 84
-77 84 -16 0 -23 -6 -23 -20z"/>
<path d="M8676 5655 c-11 -8 -32 -15 -48 -15 -17 0 -31 -7 -38 -19 -15 -28
-12 -41 8 -41 9 0 30 -16 46 -35 33 -39 46 -42 110 -20 57 19 92 6 102 -38 3
-16 9 -25 13 -20 7 12 81 25 81 14 0 -4 -4 -11 -9 -16 -5 -6 -11 -32 -12 -58
-3 -53 7 -67 47 -59 22 4 24 9 24 58 0 40 -4 54 -14 54 -18 0 -26 22 -19 49 7
29 -4 54 -19 44 -23 -13 -46 -13 -58 2 -6 7 -18 11 -26 8 -8 -3 -14 0 -14 6 0
6 -9 11 -20 11 -13 0 -22 9 -26 25 -3 14 -12 25 -20 25 -8 0 -23 9 -34 20 -24
24 -48 25 -74 5z"/>
<path d="M7363 5640 c-26 -11 -51 -57 -46 -85 9 -42 35 -115 42 -115 29 0 91
106 91 157 0 22 -7 33 -25 41 -30 14 -32 14 -62 2z"/>
<path d="M3393 5555 c0 -22 2 -30 4 -17 2 12 2 30 0 40 -3 9 -5 -1 -4 -23z"/>
<path d="M5281 5564 c0 -11 3 -14 6 -6 3 7 2 16 -1 19 -3 4 -6 -2 -5 -13z"/>
<path d="M7490 5498 c0 -21 25 -68 36 -68 8 0 14 -4 14 -10 0 -18 16 -10 30
15 7 13 17 22 22 19 4 -3 8 2 8 10 0 8 -4 17 -9 20 -13 8 -101 20 -101 14z"/>
<path d="M8426 5455 c-3 -9 -6 -26 -6 -37 0 -17 3 -18 15 -8 8 7 13 20 12 31
-4 26 -13 33 -21 14z"/>
<path d="M7180 5440 c0 -13 5 -17 20 -13 11 3 20 9 20 13 0 4 -9 10 -20 13
-15 4 -20 0 -20 -13z"/>
<path d="M7436 5383 c-17 -17 18 -123 40 -123 7 0 19 -18 28 -40 12 -31 21
-40 40 -40 13 0 31 -3 40 -6 11 -4 17 4 22 33 8 46 41 96 57 87 7 -4 1 5 -12
19 -14 15 -33 27 -43 27 -10 0 -18 3 -18 8 0 4 -12 8 -27 8 -31 1 -55 7 -94
22 -15 6 -30 8 -33 5z"/>
<path d="M8720 5355 c-9 -10 -9 -15 -1 -15 6 0 11 -8 11 -19 0 -24 56 -49 72
-33 8 8 4 21 -16 47 -29 38 -47 43 -66 20z"/>
<path d="M4321 5284 c0 -11 3 -14 6 -6 3 7 2 16 -1 19 -3 4 -6 -2 -5 -13z"/>
<path d="M8970 5246 c0 -8 5 -18 11 -21 6 -4 8 -22 4 -45 -4 -23 -2 -41 4 -45
7 -4 11 15 11 59 0 52 -3 66 -15 66 -8 0 -15 -6 -15 -14z"/>
<path d="M8473 5207 c-56 -38 -34 -53 25 -17 18 11 30 25 27 30 -8 14 -15 12
-52 -13z"/>
<path d="M4295 4846 c-43 -19 -132 -118 -157 -172 -16 -36 -19 -61 -16 -112 4
-61 7 -67 46 -103 39 -37 92 -53 92 -29 0 6 -7 10 -16 10 -23 0 -84 64 -84 89
0 23 35 47 45 31 3 -5 65 -9 149 -8 129 1 146 -1 171 -19 24 -17 26 -22 16
-41 -12 -23 -60 -52 -86 -52 -8 0 -15 -4 -15 -10 0 -21 68 -10 99 16 44 37 56
84 42 173 -26 168 -166 280 -286 227z"/>
<path d="M8988 3720 c-15 -128 -12 -197 7 -178 3 3 4 59 3 124 -3 111 -3 115
-10 54z"/>
<path d="M8914 3232 c-40 -31 -105 -82 -145 -112 -40 -30 -123 -97 -186 -149
-153 -126 -151 -144 14 -116 111 18 201 42 321 87 l82 31 0 73 c0 65 -2 72
-21 77 -22 6 -41 -7 -48 -33 -2 -8 -5 -22 -8 -30 -2 -9 5 -26 16 -39 33 -38
40 -33 -104 -86 -78 -29 -261 -75 -300 -75 -14 0 -25 4 -25 9 0 21 324 279
445 354 28 18 45 36 45 48 0 10 -3 19 -7 18 -5 0 -40 -26 -79 -57z"/>
<path d="M0 3136 l0 -94 27 -6 c16 -3 58 -8 95 -12 65 -6 68 -5 68 15 0 33
-25 65 -98 124 -99 79 -92 81 -92 -27z"/>
<path d="M0 2820 c0 -9 14 -28 31 -43 35 -31 34 -51 -4 -55 -15 -2 -27 -8 -27
-13 0 -16 47 -10 71 10 l24 20 -47 48 c-28 28 -48 42 -48 33z"/>
<path d="M8849 2696 c-136 -59 -227 -108 -246 -134 -16 -20 -17 -59 -2 -68 7
-4 30 -9 52 -12 52 -6 41 14 -13 23 -30 5 -40 11 -40 25 0 20 40 53 79 65 14
4 45 18 70 32 25 13 92 42 149 65 56 22 102 45 102 49 0 16 -25 9 -151 -45z"/>
<path d="M8015 2588 c-4 -24 -18 -70 -31 -104 -26 -66 -28 -74 -16 -74 10 0
59 134 67 183 3 21 2 37 -4 37 -5 0 -12 -19 -16 -42z"/>
<path d="M654 2578 c-13 -21 -9 -177 4 -190 9 -9 12 12 12 95 0 59 -2 107 -4
107 -3 0 -8 -6 -12 -12z"/>
<path d="M8880 2520 c-63 -10 -122 -19 -129 -19 -10 -1 -11 -4 -5 -10 5 -6 27
-6 54 -1 25 5 80 12 123 15 57 5 77 10 77 21 0 8 -1 13 -2 13 -2 -1 -55 -9
-118 -19z"/>
<path d="M0 2412 c0 -33 16 -43 27 -16 3 8 -2 23 -11 32 -15 15 -16 14 -16
-16z"/>
<path d="M8989 2346 c-2 -3 -88 -12 -189 -21 -200 -18 -236 -29 -224 -68 11
-36 23 -46 109 -87 77 -38 178 -69 273 -85 33 -5 42 -4 42 8 0 10 -15 17 -47
22 -46 6 -114 23 -178 43 -61 19 -185 84 -185 97 0 21 24 25 219 46 101 10
186 20 188 23 3 3 3 10 1 16 -2 6 -6 9 -9 6z"/>
<path d="M1136 1831 c-22 -31 -33 -50 -24 -43 20 16 72 91 67 96 -2 2 -22 -22
-43 -53z"/>
<path d="M8518 270 c17 -14 57 -35 89 -47 53 -20 72 -22 223 -18 l165 4 3 41
3 40 -133 2 c-73 0 -189 2 -257 2 l-123 2 30 -26z"/>
</g>
</svg>
